<?xml version="1.0" encoding="UTF-8"?>
<svg xmlns="http://www.w3.org/2000/svg" xmlns:xlink="http://www.w3.org/1999/xlink" width="191pt" height="112pt" viewBox="0 0 191 112" version="1.1">
<g id="surface1">
<rect x="0" y="0" width="191" height="112" style="fill:rgb(98.039216%,98.039216%,98.039216%);fill-opacity:1;stroke:none;"/>
<path style=" stroke:none;fill-rule:nonzero;fill:rgb(66.666667%,66.666667%,66.666667%);fill-opacity:1;" d="M 86.546875 63.097656 C 86.546875 64.140625 87.394531 64.992188 88.433594 64.992188 L 102.566406 64.992188 C 103.605469 64.992188 104.453125 64.140625 104.453125 63.097656 L 104.453125 48.902344 C 104.453125 47.859375 103.605469 47.007812 102.566406 47.007812 L 88.433594 47.007812 C 87.394531 47.007812 86.546875 47.859375 86.546875 48.902344 Z M 102.566406 64.09375 L 88.433594 64.09375 C 87.882812 64.09375 87.441406 63.652344 87.441406 63.097656 L 87.441406 60.726562 L 90.84375 57.320312 L 93.746094 60.234375 C 93.925781 60.414062 94.199219 60.414062 94.378906 60.234375 L 99.617188 54.96875 L 103.558594 58.925781 L 103.558594 63.097656 C 103.558594 63.652344 103.117188 64.09375 102.566406 64.09375 Z M 88.433594 47.90625 L 102.566406 47.90625 C 103.117188 47.90625 103.558594 48.347656 103.558594 48.902344 L 103.558594 57.65625 L 99.929688 54.007812 C 99.75 53.828125 99.476562 53.828125 99.296875 54.007812 L 94.054688 59.273438 L 91.15625 56.359375 C 90.976562 56.179688 90.699219 56.179688 90.523438 56.359375 L 87.441406 59.453125 L 87.441406 48.902344 C 87.441406 48.347656 87.882812 47.90625 88.433594 47.90625 Z M 88.433594 47.90625 "/>
<path style=" stroke:none;fill-rule:nonzero;fill:rgb(66.666667%,66.666667%,66.666667%);fill-opacity:1;" d="M 92.097656 54.214844 C 93.351562 54.214844 94.378906 53.183594 94.378906 51.921875 C 94.378906 50.664062 93.351562 49.632812 92.097656 49.632812 C 90.84375 49.632812 89.816406 50.664062 89.816406 51.921875 C 89.816406 53.183594 90.84375 54.214844 92.097656 54.214844 Z M 92.097656 50.53125 C 92.863281 50.53125 93.484375 51.15625 93.484375 51.921875 C 93.484375 52.691406 92.863281 53.3125 92.097656 53.3125 C 91.332031 53.3125 90.714844 52.691406 90.714844 51.921875 C 90.714844 51.15625 91.332031 50.53125 92.097656 50.53125 Z M 92.097656 50.53125 "/>
</g>
</svg>
